<svg width="634" height="230" viewBox="0 0 634 230" fill="none" xmlns="http://www.w3.org/2000/svg">
<path d="M4 93.1758C10.1667 107.342 42.6 127.176 123 93.1758C133.333 89.5092 153.2 74.7758 150 45.1758C147 44.1758 140.2 44.1758 137 52.1758L121 105.676C119 111.176 118.1 119.876 130.5 110.676L146 98.1758L162.5 64.1758L140.5 116.176L183.5 69.6758C187.5 66.5091 198.4 60.0758 210 59.6758C213.667 62.1757 219.9 69.7757 215.5 80.1758C211.833 86.0091 200.3 98.7758 183.5 103.176C178.5 102.342 168.3 98.2758 167.5 88.6758L195 116.176C198.5 116.509 208.8 115.076 222 106.676M222 106.676C222 105.676 233 82.1758 259 84.6758C261.39 87.7649 262.772 93.0622 258.242 98.1758M222 106.676C225.6 109.476 231.833 109.176 234.5 108.676C247.569 106.046 254.706 102.167 258.242 98.1758M258.242 98.1758L272 110.676C272.5 111.342 274.4 112.276 278 110.676L309 98.1758C313.833 96.1758 322.2 89.4758 317 78.6758C311.333 79.1758 300.6 83.7758 303 98.1758C304.333 101.009 308.6 107.076 315 108.676C318.167 109.176 327.3 108.176 338.5 100.176C343.667 96.5091 354.3 87.0758 355.5 78.6758C352 79.6758 344.5 84.3758 342.5 95.1758C341.833 96.0091 340.9 98.7758 342.5 103.176C345.833 104.509 355 104.776 365 95.1758C369 91.3424 377.7 81.2758 380.5 71.6758C378 72.3424 371.7 77.1758 366.5 91.1758C365 95.1758 372 103.676 384.5 98.1758C388.667 96.3424 399.1 89.1758 407.5 75.1758C403.5 79.3424 395.4 89.7758 395 98.1758C394.833 99.6758 397.1 101.776 407.5 98.1758M470.5 71.6758C468.578 73.64 466.003 76.0969 463.054 78.6758M463.054 78.6758C454.244 86.3811 442.092 95.1758 434 95.1758C432.333 94.6758 430 91.1758 434 81.1758C436.333 77.3424 443.6 69.1758 454 67.1758C457.703 68.1758 464.698 71.8758 463.054 78.6758ZM463.054 78.6758V91.1758C470.536 91.8424 488.5 89.5758 500.5 75.1758C499.5 81.3424 498.6 95.5758 503 103.176C505.667 105.176 514.8 107.376 530 100.176C531.667 98.3424 532.3 91.4758 521.5 78.6758C513.167 72.3424 495.5 54.0758 491.5 31.6758C489.667 25.5091 488.9 12.6757 500.5 10.6757C522.833 4.34242 578.8 -3.12425 624 17.6757C635.6 24.0758 628.833 36.6758 624 42.1758L477 227.676M401.5 16.6758H400.5L399.5 18.1758L402 15.6758L401.5 15.1758M308 128H307.5L306.5 129.5L308 128ZM308 128H308.5M308 128L309 127L308.5 126.5M396.5 19.6758C396.333 18.0091 396.4 14.3758 398 13.1758C400 11.6758 402.5 11.1758 404 13.1758C405.2 14.7758 405.5 16.1758 405.5 16.6758L403 19.6758C401.333 20.3424 397.7 21.2758 396.5 19.6758ZM302.5 131C302.333 129.333 303.4 125.7 305 124.5C307 123 309.5 122.5 311 124.5C312.2 126.1 312.5 127.5 312.5 128L309 131C299.5 147.5 303.7 132.6 302.5 131Z" stroke="white" stroke-width="7"/>
</svg>
